<?xml version="1.0" standalone="no"?>
<!DOCTYPE svg PUBLIC "-//W3C//DTD SVG 20010904//EN"
 "http://www.w3.org/TR/2001/REC-SVG-20010904/DTD/svg10.dtd">
<svg version="1.0" xmlns="http://www.w3.org/2000/svg"
 width="2400.000000pt" height="2400.000000pt" viewBox="0 0 2400.000000 2400.000000"
 preserveAspectRatio="xMidYMid meet">

<g transform="translate(0.000000,2400.000000) scale(0.100000,-0.100000)"
fill="#e50010" stroke="none">
<path d="M11231 18885 c-104 -23 -247 -70 -576 -190 -328 -120 -496 -173 -635
-201 -47 -9 -109 -28 -139 -42 -62 -29 -177 -133 -219 -200 -44 -69 -589
-1342 -985 -2302 -330 -799 -652 -1602 -894 -2225 -57 -148 -110 -275 -116
-281 -7 -6 -165 -39 -352 -74 -452 -83 -1232 -237 -1748 -345 -230 -48 -420
-85 -423 -83 -6 7 924 2357 1632 4121 233 582 434 1095 446 1140 28 107 30
250 5 324 -23 66 -93 145 -148 167 -229 92 -542 -97 -717 -432 -99 -190 -1316
-3225 -2079 -5187 l-148 -380 -515 -131 c-763 -194 -1598 -426 -1813 -504
-178 -65 -266 -147 -267 -248 0 -49 33 -135 86 -221 83 -134 143 -179 331
-247 192 -69 193 -71 446 -361 225 -261 341 -362 504 -443 93 -45 180 -73 286
-91 42 -7 77 -17 77 -21 0 -4 -52 -144 -116 -311 -531 -1385 -1338 -3648
-1388 -3891 -20 -95 -21 -243 -2 -312 27 -103 85 -182 163 -223 13 -6 48 -16
78 -22 149 -27 329 69 467 250 80 106 147 260 298 686 399 1125 1433 3929
1461 3959 5 5 246 60 536 123 678 145 1119 242 1617 354 219 49 400 88 402 86
2 -2 -46 -143 -107 -313 -511 -1426 -1029 -3000 -1298 -3944 -157 -552 -157
-553 -88 -696 78 -158 167 -256 442 -481 185 -151 308 -275 422 -423 107 -139
150 -165 273 -165 68 0 93 5 125 22 42 22 100 79 129 126 9 15 118 330 243
700 441 1316 811 2379 1234 3550 289 799 747 2035 770 2078 5 10 23 21 41 25
76 16 274 76 365 110 329 122 594 318 763 563 182 264 284 394 415 530 100
104 166 158 302 250 108 74 151 118 193 201 44 88 63 171 58 255 -6 86 -31
138 -94 193 -128 113 -300 125 -903 62 -166 -17 -305 -29 -308 -26 -5 5 211
554 739 1876 613 1533 946 2390 1031 2655 64 200 83 368 53 468 -41 136 -160
184 -355 142z"/>
<path d="M21984 18855 c-181 -33 -428 -116 -732 -246 -114 -49 -243 -96 -332
-120 -326 -90 -478 -212 -675 -541 -118 -197 -927 -1873 -1460 -3023 -790
-1707 -1521 -3424 -2191 -5150 -106 -273 -109 -279 -112 -230 -8 110 30 989
58 1370 74 996 151 1645 410 3470 291 2048 395 2946 431 3705 18 381 5 474
-76 556 -62 62 -135 86 -260 86 -206 0 -377 -54 -855 -272 -63 -29 -216 -86
-338 -126 -332 -109 -478 -185 -585 -304 -97 -108 -126 -172 -352 -795 -650
-1791 -1645 -4855 -2468 -7600 -479 -1595 -944 -3254 -969 -3452 -28 -228 48
-411 199 -480 47 -22 66 -25 136 -22 69 3 94 9 149 37 147 72 272 230 346 437
12 33 76 247 143 475 791 2715 1817 6047 2392 7770 159 475 182 539 185 500 4
-54 -21 -479 -49 -830 -31 -399 -64 -753 -149 -1620 -109 -1112 -151 -1568
-185 -2035 -72 -1001 -77 -1829 -15 -2387 35 -308 72 -431 183 -601 69 -106
121 -168 317 -377 198 -212 276 -308 363 -449 117 -188 209 -261 332 -261 109
0 208 80 279 225 19 39 97 239 174 445 938 2521 2314 5781 3347 7930 75 157
164 342 197 413 34 70 63 126 65 124 2 -2 -4 -37 -12 -78 -61 -283 -289 -1416
-419 -2075 -579 -2943 -1002 -5260 -1212 -6639 -34 -221 -45 -320 -42 -375 9
-156 79 -244 354 -450 300 -224 445 -358 605 -560 89 -111 160 -160 273 -185
155 -36 281 26 328 161 10 27 112 533 228 1124 1130 5763 1942 9728 2341
11435 96 407 107 462 121 592 26 250 -37 389 -194 430 -64 16 -179 16 -274 -2z"/>
<path d="M10117 11025 c-285 -54 -513 -277 -588 -576 -19 -71 -21 -102 -16
-219 6 -155 16 -205 98 -492 32 -115 59 -214 59 -221 0 -7 -14 -26 -31 -43
-41 -39 -353 -383 -461 -509 -229 -268 -343 -487 -394 -752 -22 -115 -21 -312
1 -418 63 -301 249 -521 523 -619 83 -29 94 -31 247 -31 178 0 230 10 368 69
116 51 216 111 328 198 56 44 102 78 104 76 1 -2 14 -35 29 -74 52 -139 137
-229 244 -260 104 -31 207 9 255 99 19 36 22 57 21 142 0 99 -1 102 -71 290
-39 105 -74 200 -78 213 -5 19 7 41 62 115 263 350 353 527 353 695 0 91 -17
139 -70 193 -37 39 -55 49 -100 58 -129 26 -252 -30 -417 -192 -63 -61 -94
-86 -98 -76 -20 54 -175 555 -175 566 0 7 51 77 113 156 310 389 459 626 508
814 25 93 29 243 10 323 -66 276 -325 470 -646 485 -65 3 -127 -1 -178 -10z
m182 -543 c74 -54 88 -143 38 -242 -30 -63 -214 -283 -231 -277 -20 6 -57 159
-63 257 -8 148 22 224 107 268 51 26 108 24 149 -6z m-306 -1961 c60 -185 73
-237 63 -245 -186 -156 -318 -216 -399 -182 -71 29 -85 116 -37 240 32 84 277
444 291 428 3 -4 40 -112 82 -241z"/>
</g>
</svg>
