<svg width="0" height="0" class="hidden">
  <symbol version="1.1" xmlns="http://www.w3.org/2000/svg" xmlns:xlink="http://www.w3.org/1999/xlink" viewBox="0 0 20 20" id="pinterest">
    <title>pinterest [#180]</title>
    <desc>Created with Sketch.</desc>
    <defs></defs>
    <g id="Page-1" stroke="none" stroke-width="1" fill="none" fill-rule="evenodd">
      <g id="Dribbble-Light-Preview" transform="translate(-220.000000, -7399.000000)" fill="#000000">
        <g id="icons" transform="translate(56.000000, 160.000000)">
          <path d="M173.876,7239 C168.399,7239 164,7243.43481 164,7248.95866 C164,7253.05869 166.407,7256.48916 169.893,7258.07936 C169.893,7256.21186 169.88,7256.45286 171.303,7250.38046 C170.521,7248.80236 171.129,7246.19673 172.88,7246.19673 C175.31,7246.19673 173.659,7249.79964 173.378,7251.2174 C173.129,7252.30544 173.959,7253.14238 174.955,7253.14238 C176.864,7253.14238 178.108,7250.71524 178.108,7247.87063 C178.108,7245.69456 176.615,7244.10437 174.042,7244.10437 C169.467,7244.10437 168.307,7249.19966 169.893,7250.79893 C170.292,7251.40294 169.893,7251.43118 169.893,7252.22174 C169.616,7253.05768 167.403,7251.84259 167.403,7248.70757 C167.403,7245.86195 169.727,7242.51518 174.457,7242.51518 C178.191,7242.51518 180.681,7245.27609 180.681,7248.2054 C180.681,7252.13805 178.523,7254.98366 175.37,7254.98366 C174.291,7254.98366 173.295,7254.3978 172.963,7253.72824 C172.36,7256.07371 172.238,7257.26258 171.303,7258.58153 C172.216,7258.83261 173.129,7259 174.125,7259 C179.602,7259 184,7254.56519 184,7249.04235 C183.752,7243.43481 179.353,7239 173.876,7239" id="pinterest-[#180]"></path>
        </g>
      </g>
    </g>
  </symbol>
  <symbol fill="none" xmlns="http://www.w3.org/2000/svg" viewBox="0 0 24 24" id="facebook">
    <path d="M20 12.05C19.9813 10.5255 19.5273 9.03809 18.6915 7.76295C17.8557 6.48781 16.673 5.47804 15.2826 4.85257C13.8921 4.2271 12.3519 4.01198 10.8433 4.23253C9.33473 4.45309 7.92057 5.10013 6.7674 6.09748C5.61422 7.09482 4.77005 8.40092 4.3343 9.86195C3.89856 11.323 3.88938 12.8781 4.30786 14.3442C4.72634 15.8103 5.55504 17.1262 6.69637 18.1371C7.83769 19.148 9.24412 19.8117 10.75 20.05V14.38H8.75001V12.05H10.75V10.28C10.7037 9.86846 10.7483 9.45175 10.8807 9.05931C11.0131 8.66687 11.23 8.30827 11.5161 8.00882C11.8022 7.70936 12.1505 7.47635 12.5365 7.32624C12.9225 7.17612 13.3368 7.11255 13.75 7.14003C14.3498 7.14824 14.9482 7.20173 15.54 7.30003V9.30003H14.54C14.3676 9.27828 14.1924 9.29556 14.0276 9.35059C13.8627 9.40562 13.7123 9.49699 13.5875 9.61795C13.4627 9.73891 13.3667 9.88637 13.3066 10.0494C13.2464 10.2125 13.2237 10.387 13.24 10.56V12.07H15.46L15.1 14.4H13.25V20C15.1399 19.7011 16.8601 18.7347 18.0985 17.2761C19.3369 15.8175 20.0115 13.9634 20 12.05Z" fill="#000000"></path>
  </symbol>
  <symbol fill="none" xmlns="http://www.w3.org/2000/svg" viewBox="0 0 24 24" id="youtube">
    <path d="M19.67 8.14002C19.5811 7.7973 19.4028 7.48433 19.1533 7.23309C18.9038 6.98185 18.5921 6.80134 18.25 6.71001C16.176 6.4654 14.0883 6.35517 12 6.38001C9.91174 6.35517 7.82405 6.4654 5.75001 6.71001C5.40793 6.80134 5.09622 6.98185 4.84674 7.23309C4.59725 7.48433 4.41894 7.7973 4.33001 8.14002C4.10282 9.41396 3.99236 10.706 4.00001 12C3.99198 13.3007 4.10244 14.5994 4.33001 15.88C4.42355 16.2172 4.60391 16.5239 4.85309 16.7696C5.10226 17.0153 5.41153 17.1913 5.75001 17.28C7.82405 17.5246 9.91174 17.6349 12 17.61C14.0883 17.6349 16.176 17.5246 18.25 17.28C18.5885 17.1913 18.8978 17.0153 19.1469 16.7696C19.3961 16.5239 19.5765 16.2172 19.67 15.88C19.8976 14.5994 20.008 13.3007 20 12C20.0077 10.706 19.8972 9.41396 19.67 8.14002ZM10.36 14.39V9.63001L14.55 12L10.36 14.38V14.39Z" fill="#000000"></path>
  </symbol>
  <symbol fill="none" xmlns="http://www.w3.org/2000/svg" viewBox="0 0 24 24" id="instagram">
    <path d="M12 7.90001C11.1891 7.90001 10.3964 8.14048 9.72218 8.59099C9.04794 9.0415 8.52243 9.68184 8.21211 10.431C7.90179 11.1802 7.8206 12.0046 7.9788 12.7999C8.13699 13.5952 8.52748 14.3258 9.10088 14.8992C9.67427 15.4725 10.4048 15.863 11.2001 16.0212C11.9955 16.1794 12.8198 16.0982 13.569 15.7879C14.3182 15.4776 14.9585 14.9521 15.409 14.2779C15.8596 13.6036 16.1 12.8109 16.1 12C16.1013 11.4612 15.9962 10.9275 15.7906 10.4295C15.585 9.93142 15.2831 9.47892 14.9021 9.09794C14.5211 8.71695 14.0686 8.415 13.5706 8.20942C13.0725 8.00385 12.5388 7.8987 12 7.90001ZM12 14.67C11.4719 14.67 10.9557 14.5134 10.5166 14.22C10.0776 13.9267 9.73534 13.5097 9.53326 13.0218C9.33117 12.5339 9.2783 11.9971 9.38132 11.4791C9.48434 10.9612 9.73863 10.4854 10.112 10.112C10.4854 9.73863 10.9612 9.48434 11.4791 9.38132C11.9971 9.2783 12.5339 9.33117 13.0218 9.53326C13.5097 9.73534 13.9267 10.0776 14.22 10.5166C14.5134 10.9557 14.67 11.4719 14.67 12C14.67 12.7081 14.3887 13.3873 13.888 13.888C13.3873 14.3887 12.7081 14.67 12 14.67ZM17.23 7.73001C17.23 7.9278 17.1714 8.12114 17.0615 8.28558C16.9516 8.45003 16.7954 8.57821 16.6127 8.65389C16.43 8.72958 16.2289 8.74938 16.0349 8.7108C15.8409 8.67221 15.6628 8.57697 15.5229 8.43712C15.3831 8.29727 15.2878 8.11909 15.2492 7.92511C15.2106 7.73112 15.2304 7.53006 15.3061 7.34733C15.3818 7.16461 15.51 7.00843 15.6744 6.89855C15.8389 6.78866 16.0322 6.73001 16.23 6.73001C16.4952 6.73001 16.7496 6.83537 16.9371 7.02291C17.1247 7.21044 17.23 7.4648 17.23 7.73001ZM19.94 8.73001C19.9691 7.48684 19.5054 6.28261 18.65 5.38001C17.7522 4.5137 16.5474 4.03897 15.3 4.06001C14 4.00001 10 4.00001 8.70001 4.06001C7.45722 4.0331 6.25379 4.49652 5.35001 5.35001C4.49465 6.25261 4.03093 7.45684 4.06001 8.70001C4.00001 10 4.00001 14 4.06001 15.3C4.03093 16.5432 4.49465 17.7474 5.35001 18.65C6.25379 19.5035 7.45722 19.9669 8.70001 19.94C10.02 20.02 13.98 20.02 15.3 19.94C16.5432 19.9691 17.7474 19.5054 18.65 18.65C19.5054 17.7474 19.9691 16.5432 19.94 15.3C20 14 20 10 19.94 8.70001V8.73001ZM18.24 16.73C18.1042 17.074 17.8993 17.3863 17.6378 17.6478C17.3763 17.9093 17.064 18.1142 16.72 18.25C15.1676 18.5639 13.5806 18.6715 12 18.57C10.4228 18.6716 8.83902 18.564 7.29001 18.25C6.94608 18.1142 6.63369 17.9093 6.37223 17.6478C6.11076 17.3863 5.90579 17.074 5.77001 16.73C5.35001 15.67 5.44001 13.17 5.44001 12.01C5.44001 10.85 5.35001 8.34001 5.77001 7.29001C5.90196 6.94268 6.10547 6.62698 6.36733 6.36339C6.62919 6.09981 6.94355 5.89423 7.29001 5.76001C8.83902 5.44599 10.4228 5.33839 12 5.44001C13.5806 5.33856 15.1676 5.44616 16.72 5.76001C17.064 5.89579 17.3763 6.10076 17.6378 6.36223C17.8993 6.62369 18.1042 6.93608 18.24 7.28001C18.66 8.34001 18.56 10.84 18.56 12C18.56 13.16 18.66 15.67 18.24 16.72V16.73Z" fill="#000000"></path>
  </symbol>
</svg>