<?xml version="1.0" standalone="no"?>
<!DOCTYPE svg PUBLIC "-//W3C//DTD SVG 20010904//EN"
 "http://www.w3.org/TR/2001/REC-SVG-20010904/DTD/svg10.dtd">
<svg version="1.0" xmlns="http://www.w3.org/2000/svg"
 width="700.000000pt" height="700.000000pt" viewBox="0 0 700.000000 700.000000"
 preserveAspectRatio="xMidYMid meet">
<metadata>
Created by potrace 1.14, written by Peter Selinger 2001-2017
</metadata>
<g transform="translate(0.000000,700.000000) scale(0.100000,-0.100000)"
fill="#000000" stroke="none">
<path d="M3230 5495 c-25 -7 -94 -31 -155 -53 -60 -21 -127 -42 -149 -46 -77
-14 -104 -55 -221 -330 -104 -244 -324 -780 -419 -1022 l-48 -121 -51 -12
c-58 -13 -61 -13 -207 -41 -130 -25 -122 -23 -307 -60 -85 -17 -158 -30 -162
-28 -4 2 4 35 20 73 15 39 102 259 194 490 91 231 172 434 179 450 7 17 23 57
36 90 12 33 30 78 40 100 10 22 43 106 74 187 66 172 72 224 30 263 -31 28
-60 31 -107 11 -80 -35 -105 -74 -210 -331 -89 -216 -470 -1173 -527 -1325
-38 -99 -33 -90 -56 -94 -28 -6 -363 -93 -469 -122 -213 -59 -265 -84 -265
-127 0 -39 48 -104 93 -126 24 -12 48 -21 54 -21 5 0 32 -23 59 -51 154 -160
186 -184 260 -196 18 -3 34 -9 34 -13 0 -4 -47 -133 -104 -286 -124 -332 -279
-768 -312 -878 -28 -94 -30 -126 -7 -173 33 -70 113 -65 180 11 41 47 50 68
197 476 74 206 219 600 301 817 15 41 34 75 44 77 9 3 57 14 106 25 50 11 206
45 348 76 143 31 261 54 265 51 6 -7 7 -6 -87 -276 -176 -507 -331 -993 -346
-1093 -9 -53 22 -104 111 -184 88 -77 93 -82 152 -146 35 -38 50 -47 76 -47
45 0 79 36 99 102 26 88 244 724 365 1063 57 160 80 222 188 515 l78 210 84
26 c117 38 192 92 270 195 83 109 115 145 181 197 68 53 81 72 85 119 5 50
-18 88 -60 101 -34 10 -124 9 -246 -3 -38 -4 -68 -5 -68 -2 0 4 71 185 308
783 181 457 221 571 224 630 3 80 -44 101 -152 69z"/>
<path d="M6379 5490 c-35 -9 -111 -34 -169 -56 -58 -23 -126 -49 -153 -58 -92
-34 -123 -79 -282 -402 -80 -162 -145 -296 -145 -298 0 -3 -32 -71 -71 -153
-139 -290 -365 -801 -504 -1138 -32 -77 -63 -153 -70 -170 -8 -16 -23 -55 -35
-85 -11 -30 -27 -68 -34 -85 -7 -16 -23 -57 -36 -90 -12 -33 -31 -79 -41 -102
-11 -24 -19 -47 -19 -52 0 -6 -4 -12 -9 -16 -6 -3 -8 5 -6 17 2 13 6 97 10
188 3 91 8 181 10 200 1 19 6 76 9 125 4 50 9 101 11 115 2 14 6 52 9 85 4 33
8 71 11 85 2 14 7 50 10 80 3 30 7 66 9 80 4 23 11 72 21 155 2 17 6 46 9 65
3 19 10 71 16 116 6 44 12 89 14 100 2 10 9 62 16 114 7 52 14 102 15 110 2 9
6 43 10 75 4 33 9 69 11 80 2 11 7 45 10 75 3 30 8 69 10 85 2 17 6 50 9 75 3
25 7 54 9 65 3 11 8 56 11 100 4 44 8 91 11 105 2 14 7 93 10 175 6 138 5 152
-12 173 -44 52 -130 43 -304 -30 -58 -25 -123 -51 -145 -58 -60 -19 -117 -49
-147 -78 -41 -38 -139 -301 -345 -927 -41 -126 -79 -239 -84 -250 -4 -11 -38
-114 -74 -230 -36 -115 -70 -221 -75 -235 -5 -14 -30 -92 -55 -175 -26 -82
-64 -206 -85 -275 -111 -355 -303 -1014 -360 -1234 -42 -166 -43 -199 -4 -245
46 -55 126 -38 178 37 29 42 39 70 111 317 170 580 452 1506 538 1765 8 25 50
152 92 283 42 130 81 237 87 237 5 0 7 -3 4 -8 -2 -4 -7 -61 -11 -127 -4 -65
-8 -126 -10 -134 -1 -9 -6 -63 -10 -121 -4 -58 -8 -107 -10 -110 -2 -3 -6 -41
-9 -85 -7 -82 -14 -153 -21 -215 -3 -19 -7 -71 -10 -115 -4 -44 -8 -91 -10
-105 -2 -14 -7 -65 -10 -115 -4 -49 -8 -102 -10 -117 -18 -145 -24 -558 -11
-706 12 -141 37 -196 141 -307 25 -27 71 -83 102 -123 30 -40 66 -78 78 -84
33 -15 70 -3 93 30 11 15 72 162 135 327 154 403 357 902 482 1190 162 371
250 570 337 755 22 47 65 139 95 205 56 120 75 154 68 119 -2 -10 -9 -41 -14
-69 -6 -27 -13 -62 -16 -77 -12 -66 -16 -85 -22 -113 -4 -16 -7 -32 -8 -35 -9
-44 -18 -89 -21 -105 -2 -11 -8 -42 -14 -70 -6 -27 -12 -61 -15 -75 -3 -14 -8
-41 -12 -60 -4 -19 -8 -39 -8 -45 -1 -5 -7 -35 -13 -65 -14 -71 -72 -367 -78
-400 -2 -14 -7 -36 -9 -50 -3 -14 -8 -37 -10 -52 -6 -33 -10 -53 -25 -128 -6
-30 -13 -68 -16 -85 -3 -16 -20 -113 -39 -215 -19 -102 -36 -196 -39 -210 -20
-113 -26 -150 -31 -180 -3 -19 -8 -46 -10 -60 -8 -37 -24 -127 -31 -170 -36
-223 -56 -382 -50 -403 7 -28 41 -62 141 -143 33 -26 87 -77 120 -112 50 -52
67 -64 100 -69 72 -9 89 19 120 200 3 18 12 59 20 92 7 33 16 76 19 96 3 19
28 148 55 285 170 854 253 1271 256 1284 6 27 84 414 89 440 3 14 7 36 10 49
3 14 19 93 36 176 39 195 34 172 64 308 14 65 28 132 31 148 3 16 13 62 21
102 9 39 20 88 24 107 4 19 15 71 25 115 16 77 80 359 91 400 2 11 7 49 10 85
5 56 3 69 -15 91 -27 34 -70 39 -152 19z"/>
<path d="M2925 3210 c-44 -14 -102 -66 -127 -113 -28 -54 -28 -135 0 -241 l21
-79 -26 -34 c-14 -18 -31 -37 -38 -41 -24 -14 -141 -168 -163 -214 -57 -123
-37 -279 47 -350 84 -71 226 -69 325 5 54 40 55 40 73 3 20 -44 70 -70 106
-57 44 17 48 64 15 158 l-22 62 47 68 c58 85 79 136 73 175 -7 47 -31 63 -87
59 -9 0 -37 -17 -63 -37 -25 -21 -48 -35 -49 -33 -2 2 -14 39 -27 81 -23 75
-23 77 -5 105 10 15 27 37 37 48 28 30 102 145 117 182 28 68 11 164 -36 205
-51 44 -155 67 -218 48z m94 -168 c11 -21 -6 -65 -43 -107 -19 -22 -29 -27
-34 -17 -14 21 -14 100 0 121 16 26 64 28 77 3z m-105 -556 c21 -72 21 -72
-21 -101 -59 -39 -93 -31 -93 23 0 23 80 143 90 137 5 -3 16 -30 24 -59z"/>
</g>
</svg>
